<?xml version="1.0" encoding="UTF-8"?>
<svg id="Layer_1" xmlns="http://www.w3.org/2000/svg" version="1.1" viewBox="0 0 113.4 56.7">
  <!-- Generator: Adobe Illustrator 30.2.1, SVG Export Plug-In . SVG Version: 2.1.1 Build 1)  -->
  <defs>
    <style>
      .st0 {
        fill: #fff;
      }

      .st1 {
        fill: #7dff01;
      }

      .st2 {
        fill: #ff2ad6;
      }
    </style>
  </defs>
  <path class="st2" d="M100.7,44.3v4.2c0,.6-.3.8-.7.8h-.7v-5.7h.7c.4,0,.6.2.7.7Z"/>
  <path class="st2" d="M35,29.9c-.6,1.8-1.7,4.7-6.4,9.1.7-3.9,3-7.9,5.9-9.1h.5Z"/>
  <path class="st2" d="M107.3,44.3v4.4c0,.6-.3.8-.7.8s-.7-.2-.7-.8v-4.4c0-.6.3-.8.7-.8s.7.2.7.8Z"/>
  <path class="st2" d="M61,44.3v4.2c0,.6-.3.8-.7.8h-.7v-5.7h.7c.4,0,.7.2.7.7Z"/>
  <path class="st2" d="M111.1,33.2c-.3-.6-.8-1.1-1.4-1.5s-1.5-.2-2.3-.4c-.5,0-1-.4-1.5-.7s-1.2-1-1.2-1c6.4-5.5,9.2-10.1,8.6-13.9-.5-2.8-2.7-4.6-5.6-4.5h-.1c.4-2.1.6-4,.3-5.6-.9-4.9-4.5-6-7.4-5.5-1.4.2-2.7.8-3.5,1.3,0,0-.2,0-.2,0-1.4-.5-3.1-.7-4.5-.4-.9.2-1.6.4-2.1.6-1.4.7-2.2,2.1-1.9,3.6.1.4.2.8.4,1.1-.1.3-.2.5-.3.8-1.4-.7-2.9-1.1-4.5-.8-3.4.6-5.8,5-5.3,8.1.1.5.3.9.5,1.3-2.7,1.4-3,3.1-2.8,4.4,0,.2.1.4.2.6-1.4-.8-3.1-1.2-4.7-1.1-.5,0-.9.2-1.3.4-.8.5-1.6,1.4-2.8,3.1-1.2-1.1-2.6-1.6-4-1.3-.2,0-.4.1-.6.1,0-.2-.3-.3-.5-.5.8-.3,1.5-.6,2.1-.9,2-1,2.6-2.3,2.8-3.3.8-.6,2.2-1.6,1.9-3.6-.1-.3-.6-2.6-3.5-2.6s-1,.1-1.9.2h-.2c-2,.3-4.5.9-7.2,1.4-.4-1.4-1.4-2.7-3-3.6-1.5-.8-3.1-1.2-4.5-.9-2.3.4-3.9,1.9-4.4,3.9h0c-.1.5-.3,1.3-.8,3.1-1.6.2-3,.4-4.3.5h-.3c-1.4.2-2.5,1.3-2.8,2.9,0,.7,0,1.5,0,2.2.3,1.5,1.1,2.8,2.2,3.7.4.3,1,.7,1.8.9-.2.8-.5,1.6-.7,2.3-.9-.6-1.8-.8-2.3-1q0,0-.2-.1c0,0-.3-.4-.5-.5-.7-.8-2-2.3-4.1-2.3.9-2,1.9-3.9,2.9-5.7.3-.5,1-1.7.7-3.2-.7-4-6.6-5.6-9.5-5.1-2.6.4-4.5,2.1-4.8,4.3-.2.6-.3,1.2-.5,1.9-2.2-1.4-5.2-1.9-7-1.6-2.7.5-4.6,2.3-4.9,4.6-.3,1.5-3.5,12-5.7,19-1.7,5.3-3.2,10.4-3.9,12.6,0,.6,0,1,0,1.5.3,1.6,1.5,2.9,3.7,3.8.7.3,2.2.9,3.7.8.2,0,.4,0,.6-.1.8,0,2.5-.7,3.2-3,.6-1.4,1.1-3,1.7-4.6.4.6.9,1.2,1.6,1.7,1.9,1.3,3.8,2.5,5.9,2.1,1-.2,2.7-.8,3.6-3.2,2.1,1.9,5.1,2.8,7.1,2.8s.5,0,.7,0c2.6-.4,5.1-2.5,7.2-5.1.3.3.6.5,1,.7,1.7,1.1,3.6,1.6,5.3,1.3,1.1-.2,2-.7,2.8-1.5h0c.5-.6,1-1.4,1.6-2.2,1.5,1.9,4,3,6,2.6.5,0,1-.3,1.4-.5v2.1c0,.5.2,1,.6,1.4.3.3.7.5,1.1.5h1.6c.8,0,1.5-.2,1.9-.5.3.2.7.4,1.1.5h2.4c.4,0,.8,0,1.1-.3.3.2.8.3,1.2.4h.6c.7,0,1.4-.2,1.9-.5.3.2.6.4,1,.5h.3c.5,0,1-.2,1.3-.5.4.2.8.4,1.3.5h.6c.7,0,1.4-.2,1.9-.5.3.2.6.4,1,.4h.3c.6,0,1-.2,1.4-.5.5.4,1,.5,1.4.5.7,0,1.2-.3,1.4-.5.3-.3.6-.8.6-1.5h0c.2.5.4.9.7,1.2.3.4.9.8,1.9.9h.6c1.1,0,2-.4,2.6-1.1.3.5.8.9,1.5,1h.3c.6,0,1.1-.2,1.4-.6.2-.2.3-.4.4-.6.5.6,1.2,1,2.1,1.2h.6c.8,0,1.5-.2,2-.6.3.2.6.4,1,.5h1.6c.7,0,1.4-.2,1.9-.5.3.3.7.5,1.1.5h.3c.5,0,1-.2,1.3-.5.3.2.8.4,1.4.5h.6c1.3,0,2-.5,2.5-1s.9-1.2.9-2.4v-4.2c0-1.2-.5-2-.9-2.4-.3-.3-.7-.6-1.3-.8,1.4-.5,2.6-1.4,3.2-2.8.6-1.3.8-2.9.2-4.2s-.1-.2-.2-.4ZM84.4,7.1c1.9-.3,3.8,1.3,4,2.4.2,1.1-.9,3.9-2.1,4.1-1.5.3-4.4-.7-4.7-2-.3-1.4,1.1-4.2,2.8-4.5ZM21.1,46.1c-.2,1.1-.7,1.6-1.3,1.7-1,.2-2.3-.7-3.6-1.6-.7-.4-.9-1.2-1.1-2-.3-1.6-.5-5.2-.6-8.2,0-.2-.3-.2-.4-.2-1.3.2-3.8,9.6-5.9,14.8-.2.7-.5.9-.8,1-1,.2-4.2-1-4.4-2.2,1.6-5.7,9.5-30.2,9.7-32.1,0-1.2,1.4-1.8,2.3-1.9,1.6-.3,5.6.8,5.9,2.6,0,.5-.3.8-.3,1.2-1.5,10.4-1.8,10.9-1.7,19.4,2-7.6,4.5-20.4,6.1-25.9,0-1.2,1.4-1.8,2.3-1.9,1.6-.3,5.6.8,5.9,2.6,0,.5-.1.9-.3,1.2-6.9,12.6-10.2,24.8-11.8,31.5ZM62.2,48.6c0,1.2-.6,1.9-1.9,1.9h-1.3c-.4,0-.6-.3-.6-.6v-6.8c0-.4.3-.6.6-.6h1.3c1.3,0,1.9.7,1.9,2v4.1ZM65.5,45.8c.3,0,.6.2.6.6s-.2.6-.6.6h-1.2v2.5h1.7c.3,0,.6.2.6.6,0,0-.3.4-.6.4h-2.4c-.4,0-.6-.3-.6-.6v-6.8c0-.4.3-.6.6-.6h2.4c.3,0,.6.2.6.6s-.2.6-.6.6h-1.7v2.1h1.2ZM68.8,50.6c-1.3,0-1.9-.7-1.9-2s.2-.6.6-.6.6.2.6.6c0,.6.3.8.7.8s.7-.2.7-.8-.3-1.1-1.1-1.8c-1.1-.9-1.4-1.6-1.4-2.5,0-1.3.7-2,1.9-2s1.9.8,1.9,1.8-.2.6-.6.6-.6-.3-.6-.6-.2-.7-.6-.7-.6.2-.6.8.3,1,1.1,1.7c1.1.9,1.4,1.6,1.4,2.6-.1,1.4-.8,2.1-2.1,2.1ZM72.8,49.9c0,.4-.3.6-.7.6s-.6-.3-.6-.6v-6.9c0-.4.3-.6.6-.6s.6.3.7.6v6.9ZM77.2,44.6c0,.3-.3.6-.6.6s-.6-.3-.6-.7v-.2c0-.6-.3-.8-.7-.8s-.7.2-.7.8v4.4c0,.6.3.8.7.8s.7-.2.7-.8v-1.6h0c-.3,0-.6-.2-.6-.6s.2-.6.6-.6h.7c.4,0,.6.3.6.6v2c0,1.4-.6,2.1-1.9,2.1s-1.9-.7-1.9-2v-4.2c0-1.3.7-2,1.9-2s1.9.7,1.9,2v.2ZM82.1,49.9c0,.5-.4.7-.8.6-.4,0-.7-.2-.8-.8l-1.4-5.2v5.5c0,.4-.2.6-.6.6s-.5-.3-.5-.6v-6.7c0-.6.3-.9.8-.9s.8.3,1,.8l1.1,4.1v-4.3c0-.4.2-.6.6-.6s.6.2.6.6v6.9ZM57.8,20.5c1.1-.2,3.2.7,3.5,2,.1.5,0,1-.6,1.6-1,1.1-4.2,7.2-4.1,7.9,0,.1.1.1.1.1.9-.2,5-7.2,6.9-9.3.2-.2.4-.3.6-.4,1.1-.2,2.4,1.4,2.7,2.8,0,.4,0,.7,0,1-.5,1.5-.7,1.9-.7,2.1s0,.1.2.1.3-.1.6-.3c1.8-3.3,4.1-7.3,5.2-7.9,1.6,0,3.7.7,3.9,2.2.1.5,0,1-.3,1.5-1,2-3.6,6.2-3.9,7.8-.2,1-.2,1.6-.1,2,.1.5.3.7.6.6.3,0,.7-.4.9-.8.4-.5,1.1-1.5,2.5-3.7.4-.7,1.3-2.2,2.2-3.8.9-3.6,2-7.1,1.8-8,0-.4-.4-.7-.5-1-.2-.9,3.2-2,3.9-2.1,1.3-.2,2.4,0,2.6,1.3.4,2.1-5.2,13.2-4.5,17.1.2,1.3.9,2.4,2.1,3.2.2.1.3.3.3.4.3,1.1-.6,2-1.8,2.2-1.7.3-4-.8-4.8-5.7,0-.4,0-.9,0-1.5-1.9,4.4-4,6.5-5.7,6.8s-3-1.1-3.4-3.4c-.2-1.3-.2-2.9.2-4.6h0c-.3,0-1.8,2.2-3.2,8.6,0,.5-.6.8-1.2.9-1.3.2-3.1-.3-3.3-1.5-.5-2.7,1.5-7.5,1.5-7.5,0,0-.2,0-.4,0-1.9.3-5.4,8.9-5.7,11-.1.6-.4,1-.9,1-1,.2-3.4-1.1-3.7-3-.2-1.2.2-4.3,1-7.7-.6,1.2-1.2,2.5-1.9,3.8-1,2.1-3.3,5.7-4.8,7.3-.3.3-.6.5-1.1.6-1.8.3-4.5-1.4-4.9-3.3-.1-.7-.1-1.5,0-2.7-2.3,4.5-5.8,8.6-8.6,9.1-1.6.3-6.2-1.4-6.8-4.7-1.1-6.4,3.3-16.9,8-17.7,1.5-.3,2.1,2,3.6,2.6,1,.4,2.7.3,3,2.5.4,2-7.3,9.2-10.7,11.8,0,.6,0,1.2.2,1.8.2.9.7,1.4,1.7,1.2,3-.5,5.9-4.2,8.2-8,.5-.9,1.7-2.9,2.8-4.8,1-3.7,2.3-7.8,3.6-11.6l-1.2.2c-2.8.5-3.8-1-4-2.2-.2-.9,0-1.6.3-1.6,1.9,0,4.1-.5,6.4-.9.8-2.3,1.3-4.2,1.5-5.2.5-1.1,1.4-1.4,2.1-1.6,1.3-.2,3.7,1,4,2.4.1.4,0,.8,0,1.1-.3.6-.6,1.2-.9,2,4.5-.9,8.8-1.8,11.8-2.3,1.6-.2,1.9-.2,2,0,0,.2-.8.6-1.9,1.5-.5,0-.6.2-.6.3,0,.2.5.3.6.6.3,1.6-7.5,3.4-13.9,4.7-3.4,7.8-7.8,18.6-7.4,21,0,.4.2.7.6.6.3,0,.7-.3,1.2-.7.6-.5,2.6-2.6,4.1-5.3,1-1.6,4.3-7.5,4.9-8.7M87.1,45.9c1.1.9,1.4,1.6,1.4,2.6,0,1.4-.7,2.1-2,2.1s-1.9-.7-1.9-2,.2-.6.6-.6.6.2.6.6c0,.6.3.8.7.8s.7-.2.7-.8-.3-1.1-1.1-1.8c-1.1-.9-1.4-1.6-1.4-2.5,0-1.3.7-2,1.9-2s1.9.8,1.9,1.8-.2.6-.6.6-.6-.3-.6-.6-.2-.7-.7-.7-.6.2-.6.8.3,1,1.1,1.7ZM92.3,43.6h-.8v6.3c0,.4-.2.6-.6.6s-.6-.2-.7-.6v-6.3h-.8c-.4,0-.6-.2-.6-.6s.2-.6.6-.6h3c.4,0,.6.2.6.6,0,.4-.3.6-.7.6ZM97.4,48.6c-.1,1.3-.8,2-2,2s-1.9-.7-1.9-2v-5.6c0-.4.2-.6.6-.6s.7.2.7.6v5.7c0,.6.2.8.7.8s.7-.2.7-.8v-5.7c0-.4.2-.6.6-.6s.6.2.6.6v5.6ZM100,50.5h-1.3c-.4,0-.7-.3-.7-.6v-6.8c0-.4.3-.6.6-.6h1.3c1.3,0,1.9.7,1.9,2v4.1c.1,1.2-.5,1.9-1.8,1.9ZM104,49.9c0,.4-.3.6-.7.6s-.6-.3-.6-.6v-6.9c0-.4.3-.6.6-.6s.6.3.7.6v6.9ZM108.5,44.3v4.2c0,1.3-.7,2-2,2s-2-.7-2-2v-4.2c0-1.3.7-2,2-2s2,.8,2,2ZM106.2,36.3c-3.8.7-6.6-3.6-7.4-8.3-.3-1.5,1.5-2.8,1.5-2.8,2.2-1.9,5.6-6.5,5.4-7.5,0-.2-.1-.2-.3-.2-1.4.2-4.1,3.8-6.2,7-.8,2.9-1.5,6.4-2.2,10.6,0,.6-.4,1-.9,1-.7,0-3.5-.7-3.8-2.3v-.7c.1-.4.2-.8.3-1.3-.9,1.6-1.9,3.2-2.8,4.2-.3.4-.8.7-1.2.7-1.9.3-4.1-2.5-4.4-4.5-.8-4.3,4.9-20.7,7.7-27.9,0-.2,0-.4,0-.5,0-.5-.6-.9-.7-1.2,0-.3.3-.5,1.5-.7,1.5-.3,4.6.2,5,2.5.2.9,0,2.2-1.1,3.9-3.8,6.3-8.9,21.5-8.5,23.9,0,.4.2.7.5.6,0,0,.2,0,.3-.2.4-.4,2.2-2.4,3.7-5.3.6-1,2.2-3.8,3.4-5.9,2-5.5,3.8-11.3,3.1-15.1-.2-1.1-.5-2-1.2-2.7-.2-.3-.3-.4-.4-.6,0-.2.1-.4.4-.6.7-.5,1.8-1.1,3-1.4,1.6-.3,3.3.3,3.8,3.1.6,3.4-1.5,8.9-3.5,13.7,1.7-2.8,3.9-5.2,5.9-5.5,1.7-.3,2.7.6,2.9,1.9.7,3.8-5.1,9.1-7.8,11.4-1,.7-1,1.7-.9,2.3.3,1.7,3.6,4.9,6.8,4.5,0,.2,0,.4.2.6,0,1.2-.3,2.9-2.2,3.3Z"/>
  <path class="st0" d="M108.4,33c0,1.2-.3,2.9-2.2,3.3-3.8.7-6.6-3.6-7.4-8.3-.3-1.5,1.5-2.8,1.5-2.8,2.2-1.9,5.6-6.5,5.4-7.5,0-.2-.1-.2-.3-.2-1.4.2-4.1,3.8-6.2,7-.8,2.9-1.5,6.4-2.2,10.6,0,.6-.4,1-.9,1-.7,0-1.5-.3-2.1-.5-.9-.5-1.8-1.2-1.7-2.3,0-.3,0-.5.1-.8s0-.5.2-.7c-.9,1.6-1.9,3.2-2.8,4.2-.3.4-.8.7-1.2.7-1.9.3-4.1-2.5-4.4-4.5-.8-4.3,4.9-20.7,7.7-27.9,0-.2,0-.4,0-.5,0-.5-.6-.9-.7-1.2,0-.3.3-.5,1.5-.7,1.5-.3,4.6.2,5,2.5.2.9,0,2.2-1.1,3.9-3.8,6.3-8.9,21.5-8.5,23.9,0,.4.2.7.5.6,0,0,.2,0,.3-.2.4-.4,2.2-2.4,3.7-5.3.6-1,2.2-3.8,3.4-5.9,2-5.5,3.8-11.3,3.1-15.1-.2-1.1-.5-2-1.2-2.7-.2-.3-.3-.4-.4-.6,0-.2.1-.4.4-.6.7-.5,1.8-1.1,3-1.4,1.6-.3,3.3.3,3.8,3.1.6,3.4-1.5,8.9-3.5,13.7,1.7-2.8,3.9-5.2,5.9-5.5,1.7-.3,2.7.6,2.9,1.9.7,3.8-5.1,9.1-7.8,11.4-1,.7-1,1.7-.9,2.3.3,1.7,3.6,4.9,6.8,4.5,0,.2,0,.4.2.6Z"/>
  <path class="st0" d="M86.3,13.6c-1.5.3-4.4-.7-4.7-2-.3-1.4,1.1-4.2,2.8-4.5,1.9-.3,3.8,1.3,4,2.4.2,1.1-.9,3.9-2.1,4.1Z"/>
  <path class="st0" d="M83.4,36.5c-1.2-.8-1.9-1.9-2.1-3.2-.7-3.9,4.9-15,4.5-17.1-.2-1.3-1.3-1.5-2.6-1.3-.7,0-4.1,1.2-3.9,2.1.1.3.4.6.5,1,.2.9-.9,4.4-1.8,8-.9,1.6-1.8,3.1-2.2,3.8-1.4,2.2-2.1,3.2-2.5,3.7-.2.4-.6.8-.9.8-.3.1-.5,0-.6-.6,0-.4,0-1,.1-2,.3-1.6,2.9-5.8,3.9-7.8.3-.5.4-1,.3-1.5-.2-1.5-2.3-2.3-3.9-2.2-1.1.6-3.4,4.6-5.2,7.9-.3.2-.5.3-.6.3s-.2,0-.2-.1c0-.2.2-.6.7-2.1,0-.3,0-.6,0-1-.3-1.4-1.6-3-2.7-2.8-.2,0-.4.2-.6.4-1.9,2.1-6,9.1-6.9,9.3,0,0-.1,0-.1-.1,0-.7,3.1-6.8,4.1-7.9.6-.6.7-1.1.6-1.6-.3-1.3-2.4-2.2-3.5-2-1.6.3-2.3,2.7-3,4-.9,1.8-1.9,3.6-2.8,5.3s-2,3.3-2.9,5c-1.5,2.7-3.5,4.8-4.1,5.3-.5.4-.9.7-1.2.7-.4.1-.5-.2-.6-.6-.4-2.4,4-13.2,7.4-21,6.4-1.3,14.2-3.1,13.9-4.7,0-.3-.6-.4-.6-.6s0-.2.6-.3c1.1-.9,1.9-1.3,1.9-1.5-.1-.1-.4-.1-2,0-3,.5-7.3,1.4-11.8,2.3.3-.8.6-1.4.9-2,0-.3.2-.7,0-1.1-.3-1.4-2.7-2.6-4-2.4-.7.2-1.6.5-2.1,1.6-.2,1-.7,2.9-1.5,5.2-2.3.4-4.5.8-6.4.9-.3,0-.5.7-.3,1.6.2,1.2,1.2,2.7,4,2.2l1.2-.2c-1.3,3.8-2.6,7.9-3.6,11.6-1.1,1.9-2.3,3.9-2.8,4.8-2.3,3.8-5.2,7.5-8.2,8-1,.2-1.5-.3-1.7-1.2-.1-.6-.2-1.2-.2-1.8,3.4-2.6,11.1-9.8,10.7-11.8-.3-2.2-2-2.1-3-2.5-1.5-.6-2.1-2.9-3.6-2.6-4.7.8-9.1,11.3-8,17.7.6,3.3,5.2,5,6.8,4.7,2.8-.5,6.3-4.6,8.6-9.1-.2,1.1-.2,2,0,2.7.4,1.9,3.1,3.6,4.9,3.3.5-.1.8-.3,1.1-.6,1.5-1.6,3.8-5.2,4.8-7.3.7-1.3,1.3-2.6,1.9-3.8-.8,3.4-1.2,6.5-1,7.7.3,1.9,2.7,3.2,3.7,3,.5,0,.8-.4.9-1,.3-2.1,3.8-10.7,5.7-11,.2,0,.3,0,.4,0,0,0-2,4.8-1.5,7.5.2,1.2,2,1.7,3.3,1.5.6,0,1.1-.4,1.2-.9,1.4-6.4,2.9-8.6,3.2-8.6h0c-.4,1.7-.4,3.3-.2,4.6.4,2.3,1.7,3.7,3.4,3.4s3.8-2.4,5.7-6.8c0,.6,0,1.1,0,1.5.8,4.9,3.1,6,4.8,5.7,1.2-.2,2.1-1.1,1.8-2.2,0-.1-.1-.3-.3-.4ZM34.5,29.9h.5c-.6,1.8-1.7,4.7-6.4,9.1.7-3.9,3-7.9,5.9-9.1Z"/>
  <path class="st0" d="M32.9,14.6c-6.9,12.6-10.2,24.8-11.8,31.5-.2,1.1-.7,1.6-1.3,1.7-1,.2-2.3-.7-3.6-1.6-.7-.4-.9-1.2-1.1-2-.3-1.6-.5-5.2-.6-8.2,0-.2-.3-.2-.4-.2-1.3.2-3.8,9.6-5.9,14.8-.2.7-.5.9-.8,1-1,.2-4.2-1-4.4-2.2,1.6-5.7,9.5-30.2,9.7-32.1,0-1.2,1.4-1.8,2.3-1.9,1.6-.3,5.6.8,5.9,2.6,0,.5-.3.8-.3,1.2-1.5,10.4-1.8,10.9-1.7,19.4,2-7.6,4.5-20.4,6.1-25.9,0-1.2,1.4-1.8,2.3-1.9,1.6-.3,5.6.8,5.9,2.6,0,.5-.1.9-.3,1.2Z"/>
  <path class="st1" d="M106.5,42.3c-1.3,0-2,.7-2,2v4.2c0,1.3.7,2,2,2s2-.7,2-2v-4.2c0-1.2-.7-2-2-2ZM107.3,48.7c0,.6-.3.8-.7.8s-.7-.2-.7-.8v-4.4c0-.6.3-.8.7-.8s.7.2.7.8v4.4Z"/>
  <path class="st1" d="M104,43v6.9c0,.4-.3.6-.7.6s-.6-.3-.6-.6v-6.9c0-.4.3-.6.6-.6s.6.3.7.6Z"/>
  <path class="st1" d="M97.4,43v5.6c-.1,1.3-.8,2-2,2s-1.9-.7-1.9-2v-5.6c0-.4.2-.6.6-.6s.7.2.7.6v5.7c0,.6.2.8.7.8s.7-.2.7-.8v-5.7c0-.4.2-.6.6-.6s.6.2.6.6Z"/>
  <path class="st1" d="M101.8,48.6v-4.1c0-1.3-.6-2-1.9-2h-1.3c-.3,0-.6.2-.6.6v6.8c0,.3.3.6.7.6h1.3c1.3,0,1.9-.7,1.8-1.9ZM100.7,48.5c0,.6-.3.8-.7.8h-.7v-5.7h.7c.4,0,.6.2.7.7v4.2Z"/>
  <path class="st1" d="M93,43c0,.4-.3.6-.7.6h-.8v6.3c0,.4-.2.6-.6.6s-.6-.2-.7-.6v-6.3h-.8c-.4,0-.6-.2-.6-.6s.2-.6.6-.6h3c.4,0,.6.2.6.6Z"/>
  <path class="st1" d="M88.5,48.5c0,1.4-.7,2.1-2,2.1s-1.9-.7-1.9-2,.2-.6.6-.6.6.2.6.6c0,.6.3.8.7.8s.7-.2.7-.8-.3-1.1-1.1-1.8c-1.1-.9-1.4-1.6-1.4-2.5,0-1.3.7-2,1.9-2s1.9.8,1.9,1.8-.2.6-.6.6-.6-.3-.6-.6-.2-.7-.7-.7-.6.2-.6.8.3,1,1.1,1.7c1.1.9,1.4,1.6,1.4,2.6Z"/>
  <path class="st1" d="M82.1,43v6.9c0,.5-.4.7-.8.6-.4,0-.7-.2-.8-.8l-1.4-5.2v5.5c0,.4-.2.6-.6.6s-.5-.3-.5-.6v-6.7c0-.6.3-.9.8-.9s.8.3,1,.8l1.1,4.1v-4.3c0-.4.2-.6.6-.6s.6.2.6.6Z"/>
  <path class="st1" d="M76,44.5v-.2c0-.6-.3-.8-.7-.8s-.7.2-.7.8v4.4c0,.6.3.8.7.8s.7-.2.7-.8v-1.6h0c-.3,0-.6-.2-.6-.6s.2-.6.6-.6h.7c.4,0,.6.3.6.6v2c0,1.4-.6,2.1-1.9,2.1s-1.9-.7-1.9-2v-4.2c0-1.3.7-2,1.9-2s1.9.7,1.9,2v.2c0,.3-.3.6-.6.6s-.6-.3-.6-.7Z"/>
  <path class="st1" d="M72.8,43v6.9c0,.4-.3.6-.7.6s-.6-.3-.6-.6v-6.9c0-.4.3-.6.6-.6s.6.3.7.6Z"/>
  <path class="st1" d="M70.9,48.5c-.1,1.4-.8,2.1-2.1,2.1s-1.9-.7-1.9-2,.2-.6.6-.6.6.2.6.6c0,.6.3.8.7.8s.7-.2.7-.8-.3-1.1-1.1-1.8c-1.1-.9-1.4-1.6-1.4-2.5,0-1.3.7-2,1.9-2s1.9.8,1.9,1.8-.2.6-.6.6-.6-.3-.6-.6-.2-.7-.6-.7-.6.2-.6.8.3,1,1.1,1.7c1.1.9,1.4,1.6,1.4,2.6Z"/>
  <path class="st1" d="M66.6,50.1c0,0-.3.4-.6.4h-2.4c-.4,0-.6-.3-.6-.6v-6.8c0-.4.3-.6.6-.6h2.4c.3,0,.6.2.6.6s-.2.6-.6.6h-1.7v2.1h1.2c.3,0,.6.2.6.6s-.2.6-.6.6h-1.2v2.5h1.7c.3,0,.6.2.6.6Z"/>
  <path class="st1" d="M60.3,42.5h-1.3c-.3,0-.6.2-.6.6v6.8c0,.3.2.6.6.6h1.3c1.3,0,1.9-.7,1.9-1.9v-4.1c0-1.3-.6-2-1.9-2ZM61,48.5c0,.6-.3.8-.7.8h-.7v-5.7h.7c.4,0,.7.2.7.7v4.2Z"/>
</svg>